<?xml version="1.0" encoding="utf-8"?>
<!-- Generator: Adobe Illustrator 16.0.0, SVG Export Plug-In . SVG Version: 6.00 Build 0)  -->
<!DOCTYPE svg PUBLIC "-//W3C//DTD SVG 1.1//EN" "http://www.w3.org/Graphics/SVG/1.1/DTD/svg11.dtd">
<svg version="1.1" xmlns="http://www.w3.org/2000/svg" xmlns:xlink="http://www.w3.org/1999/xlink" x="0px" y="0px" width="296px"
	 height="112px" viewBox="0 0 296 112" enable-background="new 0 0 296 112" xml:space="preserve">
<g id="Layer_2" display="none">
	<g display="inline">
		<rect x="-5" y="-2.092" fill="#2D2D2D" width="346" height="145"/>
	</g>
</g>
<g id="Layer_1">
	<path fill-rule="evenodd" clip-rule="evenodd" fill="#8493A8" d="M15.705,15.611c-0.395,0.395-1.034,0.395-1.425,0l-3.094-3.091
		c-1.168,0.873-2.614,1.396-4.181,1.396C3.139,13.916,0,10.779,0,6.912c0-3.87,3.139-7.004,7.006-7.004s7.001,3.134,7.001,7.004
		c0,1.569-0.521,3.014-1.396,4.183l3.094,3.089C16.1,14.579,16.1,15.218,15.705,15.611z M7.006,1.909
		c-2.764,0-5.003,2.241-5.003,5.003c0,2.762,2.239,5,5.003,5c2.76,0,4.999-2.239,4.999-5C12.004,4.15,9.766,1.909,7.006,1.909z"/>
	<path fill-rule="evenodd" clip-rule="evenodd" fill="#8493A8" d="M23.512,11.604c-0.347,0.337-0.908,0.337-1.253,0
		c-0.347-0.339-0.347-0.884,0-1.223l4.62-4.5l-4.62-4.498c-0.347-0.337-0.347-0.884,0-1.221c0.345-0.339,0.906-0.339,1.253,0
		l5.232,5.093C28.923,5.427,29.004,5.656,29,5.881c0.004,0.229-0.077,0.456-0.255,0.631L23.512,11.604z"/>
	<path fill="#FFFFFF" d="M47.273,0.205l-5.272,5.271l-5.271-5.271c-0.396-0.396-1.038-0.396-1.432,0
		c-0.396,0.394-0.396,1.036,0,1.43l5.968,5.968c0.203,0.203,0.471,0.301,0.735,0.295c0.264,0.006,0.532-0.092,0.735-0.295
		l5.968-5.968c0.394-0.394,0.394-1.036,0-1.43C48.311-0.191,47.668-0.191,47.273,0.205z"/>
	<path fill-rule="evenodd" clip-rule="evenodd" fill="#D2335C" d="M124.495,23.903h-16.998c-0.821,0-1.497-0.671-1.497-1.501V10.404
		c0-0.83,0.676-1.501,1.497-1.501h2.506V5.905c0-3.312,2.686-5.997,5.997-5.997s5.997,2.685,5.997,5.997v2.999h2.498
		c0.829,0,1.505,0.671,1.505,1.501v11.998C126,23.232,125.324,23.903,124.495,23.903z M114.503,19.904h2.994l-0.781-3.137
		c0.749-0.289,1.286-1.013,1.286-1.863c0-1.103-0.896-1.998-2.002-1.998s-2.002,0.895-2.002,1.998c0,0.85,0.537,1.574,1.286,1.863
		L114.503,19.904z M119.995,5.905c0-2.209-1.79-3.999-3.995-3.999c-2.213,0-4.003,1.79-4.003,3.999v2.999h7.998V5.905z"/>
	<path fill-rule="evenodd" clip-rule="evenodd" fill="#8493A8" d="M72.499,23.908H55.5c-0.828,0-1.5-0.671-1.5-1.501V10.41
		c0-0.83,0.672-1.501,1.5-1.501H58V5.91c0-3.314,2.686-6.001,5.999-6.001c3.312,0,5.997,2.688,5.997,6.001h-1.997
		c0-2.209-1.791-4-4-4c-2.21,0-3.999,1.79-3.999,4v2.999h12.499C73.324,8.908,74,9.58,74,10.41v11.997
		C74,23.236,73.324,23.908,72.499,23.908z M63.999,12.91c-1.104,0-2,0.893-2,2c0,0.851,0.535,1.573,1.284,1.861L62.5,19.908h2.996
		l-0.781-3.137c0.749-0.289,1.286-1.011,1.286-1.861C66.001,13.803,65.105,12.91,63.999,12.91z"/>
	<path fill-rule="evenodd" clip-rule="evenodd" fill="#9DBF16" d="M98.495,23.905H81.499c-0.827,0-1.499-0.671-1.499-1.501V10.409
		c0-0.83,0.672-1.501,1.499-1.501h2.5V5.909c0-3.314,2.686-6.001,6.001-6.001c3.312,0,5.997,2.687,5.997,6.001h-2.002
		c0-2.209-1.79-4-3.995-4c-2.211,0-4.001,1.79-4.001,4v2.998h12.496c0.829,0,1.505,0.671,1.505,1.501v11.996
		C100,23.234,99.324,23.905,98.495,23.905z M90,12.909c-1.106,0-2.002,0.893-2.002,2c0,0.85,0.537,1.572,1.286,1.861l-0.785,3.137
		h2.998l-0.781-3.137c0.749-0.289,1.286-1.011,1.286-1.861C92.002,13.802,91.106,12.909,90,12.909z"/>
	<path fill-rule="evenodd" clip-rule="evenodd" fill="#54657E" d="M15,27.903H3.422l4.272,4.272c0.395,0.395,0.395,1.033,0,1.428
		c-0.394,0.395-1.032,0.395-1.432,0l-5.966-5.961C0.094,27.439-0.003,27.17,0,26.906l0,0c0-0.004,0-0.004,0-0.004
		c-0.004-0.265,0.094-0.533,0.297-0.732l5.966-5.965c0.399-0.395,1.038-0.395,1.432,0c0.395,0.395,0.395,1.037,0,1.432l-4.272,4.269
		H15c0.554,0,1.001,0.448,1.001,1.001C16,27.455,15.553,27.903,15,27.903z"/>
	<path fill-rule="evenodd" clip-rule="evenodd" fill="#54657E" d="M23.001,27.903h11.577l-4.273,4.272
		c-0.395,0.395-0.395,1.034,0,1.428c0.396,0.395,1.034,0.395,1.433,0l5.966-5.961c0.203-0.204,0.301-0.472,0.297-0.737l0,0
		c0-0.004,0-0.004,0-0.004c0.004-0.265-0.094-0.533-0.297-0.732l-5.966-5.965c-0.398-0.395-1.037-0.395-1.433,0
		c-0.395,0.395-0.395,1.038,0,1.432l4.273,4.269H23.001c-0.554,0-1.001,0.448-1.001,1.001C22,27.455,22.447,27.903,23.001,27.903z"
		/>
	<linearGradient id="SVGID_1_" gradientUnits="userSpaceOnUse" x1="148" y1="47.9141" x2="148" y2="-0.0913">
		<stop  offset="0" style="stop-color:#CA3058"/>
		<stop  offset="1" style="stop-color:#FF9A48"/>
	</linearGradient>
	<path fill-rule="evenodd" clip-rule="evenodd" fill="url(#SVGID_1_)" d="M163.995,22.744c-3.842,12.925-15.993,25.17-15.993,25.17
		s-12.119-12.215-15.977-25.111C131.374,20.988,131,18.941,131,16.9c0-9.439,7.609-16.992,17.002-16.992
		C157.386-0.092,165,7.461,165,16.9C165,18.918,164.638,20.947,163.995,22.744z M148.002,9.909c-3.87,0-7.003,3.136-7.003,7.001
		c0,3.866,3.133,7,7.003,7c3.866,0,6.999-3.133,6.999-7C155.001,13.044,151.868,9.909,148.002,9.909z"/>
	<path fill-rule="evenodd" clip-rule="evenodd" fill="#95A2B4" d="M55.233,30.214l-8.121,8.198l-3.342-3.383
		c-0.407-0.407-1.062-0.407-1.466,0c-0.406,0.407-0.406,1.07,0,1.478l4.055,4.103c0.208,0.212,0.48,0.309,0.753,0.305
		c0.272,0.004,0.546-0.093,0.753-0.305l8.833-8.918c0.399-0.407,0.399-1.066,0-1.478C56.292,29.807,55.636,29.807,55.233,30.214z"/>
	<path fill="#FFFFFF" d="M82.932,55.503c0.082,0.139,0.193,0.222,0.333,0.25c0.14,0.027,0.265-0.016,0.376-0.127l1.51-1.508
		c0.279-0.279,0.377-0.629,0.295-1.046l-3.143-12.446c-0.11-0.39-0.012-0.738,0.295-1.046l5.238-5.238
		c0.279-0.279,0.49-0.6,0.63-0.963c0.477-1.088,0.479-1.951,0.007-2.591c-0.055-0.111-0.125-0.208-0.208-0.292
		c-0.083-0.083-0.194-0.167-0.333-0.25c-0.028-0.028-0.07-0.055-0.126-0.083c-0.056-0.028-0.125-0.055-0.208-0.083
		c-0.251-0.139-0.557-0.194-0.92-0.165c-0.361,0.029-0.668,0.085-0.92,0.17l-0.418,0.168c-0.335,0.167-0.642,0.392-0.921,0.671
		l-5.238,5.238c-0.308,0.308-0.656,0.406-1.046,0.295l-12.445-3.143c-0.418-0.082-0.767,0.016-1.046,0.295l-1.509,1.509
		c-0.111,0.112-0.154,0.237-0.127,0.376c0.029,0.139,0.111,0.25,0.25,0.333l10.226,5.196c0.167,0.055,0.257,0.159,0.271,0.312
		s-0.035,0.286-0.146,0.397l-4.065,4.065c-0.308,0.307-0.655,0.434-1.046,0.379l-1.797-0.287c-0.389-0.056-0.738,0.07-1.045,0.378
		l-1.006,1.006c-0.112,0.112-0.154,0.237-0.127,0.376c0.027,0.141,0.111,0.251,0.25,0.334l3.339,1.83
		c0.362,0.194,0.64,0.472,0.833,0.834l1.83,3.338c0.084,0.139,0.194,0.223,0.334,0.25c0.139,0.027,0.265-0.014,0.377-0.126
		l1.006-1.006c0.307-0.308,0.434-0.656,0.378-1.046l-0.288-1.797c-0.055-0.39,0.072-0.738,0.379-1.045l4.065-4.065
		c0.14-0.14,0.279-0.196,0.419-0.169c0.139,0.028,0.236,0.125,0.291,0.293L82.932,55.503z"/>
	<path fill="#FFFFFF" d="M105.956,58.045v6.863h10.087V50.682c3.016-0.375,4.226-1.002,4.226-1.002L123,41.188h-5.479l1.505-6.705
		h-1.066v-1.414h-6.556v-3.146h2.799v-1.015h-6.404v1.015h2.799v3.146h-6.557v1.414h-1.066l1.505,6.705H99l2.73,8.492
		c0,0,1.271,0.602,4.226,0.98v1.168 M116.102,36.808l-0.783,3.487h-8.636l-0.784-3.487H116.102z M118.983,47.938h-15.967
		l-1.609-5.006h19.186L118.983,47.938z"/>
	<path fill-rule="evenodd" clip-rule="evenodd" fill="#FFFFFF" d="M27.189,59.479H9.065c-1.001,0-1.814-0.832-1.814-1.857
		s0.813-1.857,1.814-1.857h18.124c1.001,0,1.811,0.832,1.811,1.857S28.19,59.479,27.189,59.479z M27.189,52.051H9.065
		c-1.001,0-1.814-0.83-1.814-1.857c0-1.025,0.813-1.857,1.814-1.857h18.124c1.001,0,1.811,0.832,1.811,1.857
		C29,51.221,28.19,52.051,27.189,52.051z M27.189,44.621H9.065c-1.001,0-1.814-0.83-1.814-1.855s0.813-1.858,1.814-1.858h18.124
		c1.001,0,1.811,0.833,1.811,1.858S28.19,44.621,27.189,44.621z M1.814,66.908C0.813,66.908,0,66.078,0,65.053
		c0-1.029,0.813-1.859,1.814-1.859s1.812,0.83,1.812,1.859C3.626,66.078,2.815,66.908,1.814,66.908z M1.814,59.479
		C0.813,59.479,0,58.646,0,57.621s0.813-1.857,1.814-1.857s1.812,0.832,1.812,1.857S2.815,59.479,1.814,59.479z M1.814,52.051
		C0.813,52.051,0,51.221,0,50.193c0-1.025,0.813-1.857,1.814-1.857s1.812,0.832,1.812,1.857C3.626,51.221,2.815,52.051,1.814,52.051
		z M1.814,44.621C0.813,44.621,0,43.791,0,42.766s0.813-1.858,1.814-1.858s1.812,0.833,1.812,1.858S2.815,44.621,1.814,44.621z
		 M9.065,63.193h18.124c1.001,0,1.811,0.83,1.811,1.859c0,1.025-0.81,1.855-1.811,1.855H9.065c-1.001,0-1.814-0.83-1.814-1.855
		C7.251,64.023,8.064,63.193,9.065,63.193z"/>
	<path fill-rule="evenodd" clip-rule="evenodd" fill="#8493A8" d="M51.003,58.907H37.001c-0.554,0-1.001-0.457-1.001-1.025V46.934
		c0-0.564,0.447-1.025,1.001-1.025h14.002c0.55,0,0.997,0.461,0.997,1.025v10.948C52,58.45,51.553,58.907,51.003,58.907z
		 M50.002,56.856v-7.921l-5.514,5.667c-0.135,0.139-0.313,0.205-0.492,0.199c-0.175,0.006-0.354-0.061-0.488-0.199l-5.506-5.66
		v7.914H50.002z M49.042,47.961H38.954l5.042,5.185L49.042,47.961z"/>
	<path fill-rule="evenodd" clip-rule="evenodd" fill="#FF9948" d="M42.584,63.197c0.065-0.178,0.229-0.289,0.414-0.289
		c0.191,0,0.351,0.111,0.416,0.289l1.686,4.694c0.065,0.172,0.22,0.282,0.407,0.289l5.064,0.125
		c0.187,0.005,0.346,0.121,0.407,0.298c0.057,0.175,0,0.358-0.155,0.472l-4.021,3.037c-0.146,0.112-0.208,0.289-0.155,0.462
		l1.441,4.784c0.057,0.179-0.008,0.361-0.163,0.47c-0.154,0.11-0.35,0.11-0.509,0.004l-4.165-2.82c-0.154-0.104-0.351-0.104-0.504,0
		l-4.165,2.82c-0.155,0.106-0.354,0.106-0.51-0.004c-0.154-0.108-0.216-0.291-0.162-0.47l1.441-4.784
		c0.053-0.173-0.009-0.35-0.155-0.462l-4.021-3.037c-0.155-0.113-0.212-0.297-0.15-0.472c0.061-0.177,0.216-0.293,0.406-0.298
		l5.064-0.125c0.184-0.007,0.342-0.117,0.403-0.289L42.584,63.197z"/>
	<g>
		<path fill="#FF9948" d="M65,64.999l1.158,3.224c0.195,0.561,0.71,0.937,1.322,0.959l3.438,0.085l-2.728,2.055
			c-0.478,0.366-0.674,0.974-0.499,1.545l0.982,3.259l-2.87-1.942c-0.241-0.161-0.52-0.245-0.806-0.245
			c-0.287,0-0.566,0.085-0.811,0.249l-2.863,1.939l0.984-3.257c0.176-0.575-0.021-1.184-0.506-1.553l-2.72-2.05l3.449-0.086
			c0.601-0.021,1.115-0.397,1.309-0.95L65,64.999 M65,62.908c-0.19,0-0.354,0.112-0.415,0.289l-1.686,4.695
			c-0.061,0.173-0.216,0.282-0.403,0.289l-5.065,0.126c-0.191,0.004-0.351,0.12-0.407,0.297c-0.062,0.176,0,0.359,0.146,0.473
			l4.031,3.038c0.147,0.112,0.204,0.289,0.151,0.462l-1.446,4.785c-0.049,0.18,0.012,0.362,0.167,0.471
			c0.078,0.056,0.167,0.083,0.257,0.083c0.087,0,0.175-0.026,0.252-0.079l4.166-2.822c0.077-0.052,0.164-0.077,0.25-0.077
			c0.087,0,0.174,0.025,0.251,0.077l4.17,2.822c0.077,0.053,0.165,0.079,0.252,0.079c0.089,0,0.177-0.027,0.253-0.083
			c0.155-0.108,0.22-0.291,0.167-0.471l-1.442-4.785c-0.053-0.173,0.004-0.35,0.15-0.462l4.032-3.038
			c0.146-0.113,0.204-0.297,0.146-0.473c-0.057-0.177-0.216-0.293-0.407-0.297l-5.065-0.126c-0.188-0.007-0.343-0.116-0.403-0.289
			l-1.686-4.695C65.354,63.021,65.191,62.908,65,62.908L65,62.908z"/>
	</g>
	<path fill-rule="evenodd" clip-rule="evenodd" fill="#8493A8" d="M91.706,66.63l-4.282,4.278l4.282,4.281
		c0.391,0.393,0.391,1.031,0,1.424c-0.395,0.396-1.034,0.396-1.429,0l-4.278-4.277l-4.278,4.277c-0.396,0.396-1.034,0.396-1.425,0
		c-0.396-0.393-0.396-1.031,0-1.424l4.278-4.281l-4.278-4.278c-0.396-0.393-0.396-1.032,0-1.427c0.391-0.393,1.029-0.393,1.425,0
		l4.278,4.278l4.278-4.278c0.395-0.393,1.034-0.393,1.429,0C92.097,65.598,92.097,66.237,91.706,66.63z"/>
	<path fill-rule="evenodd" clip-rule="evenodd" fill="#FFFFFF" d="M208.008,47.139c-3.634,0.605-7.91,0.77-16.008,0.77
		s-12.37-0.164-16.008-0.77c-5.087-0.846-7.992-2.662-7.992-5.713c0-4.029,5.185-9.644,12.395-12.895
		c2.914,4.415,7.023,7.377,11.605,7.377s8.7-2.962,11.613-7.377C210.815,31.782,216,37.397,216,41.426
		C216,44.477,213.103,46.293,208.008,47.139z M192,31.908c-6.641,0-12-8.818-12-17.88c0-8.439,5.009-14.12,12-14.12
		s12.004,5.681,12.004,14.12C204.004,23.089,198.645,31.908,192,31.908z"/>
	<path fill-rule="evenodd" clip-rule="evenodd" fill="#FFFFFF" d="M168.123,99.92h-40.246c-1.591,0-2.877-1.286-2.877-2.877V56.796
		c0-1.59,1.286-2.876,2.877-2.876h31.571l-5.745,5.749h-22.949V94.17h34.497V71.209L171,65.46v31.583
		C171,98.634,169.714,99.92,168.123,99.92z M168.693,62.358l-6.148-6.148l1.025-1.029c1.696-1.696,4.451-1.696,6.148,0
		c1.7,1.701,1.7,4.456,0,6.152L168.693,62.358z M138.42,86.5l2.051-8.199l1.025-1.029l6.144,6.152l-1.021,1.025L138.42,86.5z
		 M166.646,64.409L149.69,81.373l-6.148-6.152l16.956-16.96L166.646,64.409z"/>
	<path fill-rule="evenodd" clip-rule="evenodd" fill="#FFFFFF" d="M225.001,101.91h-35.998c-1.66,0-3.003-1.343-3.003-2.999V93.91
		h2.002c2.209,0,4-1.79,4-3.999c0-2.21-1.791-4-4-4H186v-4h2.002c2.209,0,4-1.79,4-4c0-2.209-1.791-4-4-4H186v-4.003h2.002
		c2.209,0,4-1.791,4-4c0-2.206-1.791-3.996-4-3.996H186v-5.001c0-1.66,1.343-3.003,3.003-3.003h21v22.001l5.998-6.001l6.001,6.001
		V53.908h2.999c1.656,0,2.999,1.343,2.999,3.003v42C228,100.567,226.657,101.91,225.001,101.91z M190,65.908
		c0,1.106-0.896,2.002-1.998,2.002h-4c-1.106,0-2.002-0.896-2.002-2.002c0-1.104,0.896-1.998,2.002-1.998h4
		C189.104,63.91,190,64.805,190,65.908z M184.002,75.909h4c1.103,0,1.998,0.896,1.998,2.002c0,1.103-0.896,1.998-1.998,1.998h-4
		c-1.106,0-2.002-0.896-2.002-1.998C182,76.805,182.896,75.909,184.002,75.909z M184.002,87.909h4c1.103,0,1.998,0.895,1.998,2.002
		c0,1.103-0.896,1.997-1.998,1.997h-4c-1.106,0-2.002-0.895-2.002-1.997C182,88.804,182.896,87.909,184.002,87.909z"/>
	<path fill-rule="evenodd" clip-rule="evenodd" fill="#FFFFFF" d="M250.332-0.092L264,13.905h-13.668V-0.092z M246.43,11.907
		c0,3.312,2.62,5.998,5.855,5.998H264v24c0,3.316-2.625,6.002-5.859,6.002h-29.285c-1.615,0-2.999-0.586-4.143-1.758
		S223,43.565,223,41.905V5.906c0-3.312,2.62-5.998,5.855-5.998h17.574V11.907z"/>
	<g>
		<g>
			<g>
				<path fill-rule="evenodd" clip-rule="evenodd" fill="#0082D5" d="M6.306,106.908H26l-6.31,5.184H0L6.306,106.908z"/>
				<path fill-rule="evenodd" clip-rule="evenodd" fill="#D2335C" d="M36.306,106.908H56l-6.309,5.184H30L36.306,106.908z"/>
			</g>
			<g>
				<path fill-rule="evenodd" clip-rule="evenodd" fill="#0082D5" d="M66.307,106.908H86l-6.309,5.184H60L66.307,106.908z"/>
				<path fill-rule="evenodd" clip-rule="evenodd" fill="#D2335C" d="M96.307,106.908H116l-6.309,5.184H90L96.307,106.908z"/>
			</g>
		</g>
		<g>
			<g>
				<path fill-rule="evenodd" clip-rule="evenodd" fill="#0082D5" d="M126.306,106.908H146l-6.31,5.184H120L126.306,106.908z"/>
				<path fill-rule="evenodd" clip-rule="evenodd" fill="#D2335C" d="M156.306,106.908H176l-6.309,5.184H150L156.306,106.908z"/>
			</g>
			<g>
				<path fill-rule="evenodd" clip-rule="evenodd" fill="#0082D5" d="M186.307,106.908H206l-6.309,5.184H180L186.307,106.908z"/>
				<path fill-rule="evenodd" clip-rule="evenodd" fill="#D2335C" d="M216.307,106.908H236l-6.309,5.184H210L216.307,106.908z"/>
			</g>
		</g>
		<g>
			<g>
				<path fill-rule="evenodd" clip-rule="evenodd" fill="#0082D5" d="M246.306,106.908H266l-6.31,5.184H240L246.306,106.908z"/>
				<path fill-rule="evenodd" clip-rule="evenodd" fill="#D2335C" d="M276.306,106.908H296l-6.309,5.184H270L276.306,106.908z"/>
			</g>
			<g>
				<path fill-rule="evenodd" clip-rule="evenodd" fill="#0082D5" d="M306.307,106.908H326l-6.309,5.184H300L306.307,106.908z"/>
				<path fill-rule="evenodd" clip-rule="evenodd" fill="#D2335C" d="M336.307,106.908H356l-6.309,5.184H330L336.307,106.908z"/>
			</g>
		</g>
	</g>
</g>
</svg>
